<?xml version="1.0" encoding="UTF-8"?>
<svg xmlns="http://www.w3.org/2000/svg" width="1100" height="900" viewBox="0 0 1100 900">
  <rect width="1100" height="900" fill="#ffffff" />
  <text x="24" y="39.6" font-family="sans-serif" font-size="18" fill="#333">
    /home/pulgamecanica/matcha
  </text>
  <g transform="translate(24,72)">
    <circle cx="239.72" cy="554.06" r="119.27" fill="#fff" />
    <circle cx="239.72" cy="554.06" r="119.27"
            fill="none" stroke="#222" stroke-width="1.2"
            stroke-dasharray="350.69 48 350.69"
            transform="rotate(90 239.72 554.06)" />
    <circle cx="375.25" cy="554.06" r="14.52" fill="#fff" />
    <circle cx="375.25" cy="554.06" r="14.52"
            fill="none" stroke="#222" stroke-width="1.2"
            stroke-dasharray="26.61 38 26.61"
            transform="rotate(90 375.25 554.06)" />
    <circle cx="387.87" cy="604.12" r="35.37" fill="#fff" />
    <circle cx="387.87" cy="604.12" r="35.37"
            fill="none" stroke="#222" stroke-width="1.2"
            stroke-dasharray="87.61 47 87.61"
            transform="rotate(90 387.87 604.12)" />
    <circle cx="577.03" cy="336.98" r="280.11" fill="#fff" />
    <circle cx="577.03" cy="336.98" r="280.11"
            fill="none" stroke="#222" stroke-width="1.2"
            stroke-dasharray="859.50 41 859.50"
            transform="rotate(90 577.03 336.98)" />
    <circle cx="347.46" cy="636.06" r="14.39" fill="#1b9e77" />
    <circle cx="219.38" cy="551.97" r="0" fill="#fff" />
    <circle cx="289.16" cy="551.97" r="68.03" fill="#fff" />
    <circle cx="289.16" cy="551.97" r="68.03"
            fill="none" stroke="#222" stroke-width="1.2"
            stroke-dasharray="186.24 55 186.24"
            transform="rotate(90 289.16 551.97)" />
    <circle cx="206.55" cy="559.60" r="13.18" fill="#fff" />
    <circle cx="206.55" cy="559.60" r="13.18"
            fill="none" stroke="#222" stroke-width="1.2"
            stroke-dasharray="22.78 37.27 22.78"
            transform="rotate(90 206.55 559.60)" />
    <circle cx="185.69" cy="504.37" r="44.11" fill="#fff" />
    <circle cx="185.69" cy="504.37" r="44.11"
            fill="none" stroke="#222" stroke-width="1.2"
            stroke-dasharray="117.56 42.06 117.56"
            transform="rotate(90 185.69 504.37)" />
    <circle cx="199.02" cy="613.18" r="39.18" fill="#fff" />
    <circle cx="199.02" cy="613.18" r="39.18"
            fill="none" stroke="#222" stroke-width="1.2"
            stroke-dasharray="95.95 54.28 95.95"
            transform="rotate(90 199.02 613.18)" />
    <circle cx="246.71" cy="465.65" r="26.41" fill="#fff" />
    <circle cx="246.71" cy="465.65" r="26.41"
            fill="none" stroke="#222" stroke-width="1.2"
            stroke-dasharray="63.98 38 63.98"
            transform="rotate(90 246.71 465.65)" />
    <circle cx="250.58" cy="623.76" r="11.71" fill="#d95f02" />
    <circle cx="273.27" cy="630.31" r="10.15" fill="#7570b3" />
    <circle cx="282.56" cy="473.85" r="8.61" fill="#e7298a" />
    <circle cx="299.90" cy="636.51" r="15.44" fill="#66a61e" />
    <circle cx="303.53" cy="472.85" r="10.63" fill="#e6ab02" />
    <circle cx="375.25" cy="554.06" r="12.77" fill="#1b9e77" />
    <circle cx="370.33" cy="592.96" r="12.83" fill="#a6761d" />
    <circle cx="401.16" cy="592.96" r="16.26" fill="#666666" />
    <circle cx="382.17" cy="620.97" r="15.84" fill="#1b9e77" />
    <circle cx="333.09" cy="336.98" r="34.43" fill="#fff" />
    <circle cx="333.09" cy="336.98" r="34.43"
            fill="none" stroke="#222" stroke-width="1.2"
            stroke-dasharray="84.66 47 84.66"
            transform="rotate(90 333.09 336.98)" />
    <circle cx="612.33" cy="336.98" r="243.06" fill="#fff" />
    <circle cx="612.33" cy="336.98" r="243.06"
            fill="none" stroke="#222" stroke-width="1.2"
            stroke-dasharray="743.11 41 743.11"
            transform="rotate(90 612.33 336.98)" />
    <circle cx="359.48" cy="376.14" r="11.05" fill="#d95f02" />
    <circle cx="358.52" cy="295.68" r="12.34" fill="#7570b3" />
    <circle cx="363.83" cy="400.12" r="11.58" fill="#e7298a" />
    <circle cx="367.69" cy="276.48" r="7.20" fill="#66a61e" />
    <circle cx="372.12" cy="421.89" r="9.97" fill="#e6ab02" />
    <circle cx="368.40" cy="255.03" r="12.52" fill="#a6761d" />
    <circle cx="379.22" cy="444.34" r="11.83" fill="#a6761d" />
    <circle cx="375.78" cy="224.54" r="17.10" fill="#666666" />
    <circle cx="390.43" cy="468.68" r="13.23" fill="#666666" />
    <circle cx="395.31" cy="202.96" r="10.26" fill="#a6761d" />
    <circle cx="406.01" cy="492.80" r="13.74" fill="#1b9e77" />
    <circle cx="407.15" cy="181.03" r="12.91" fill="#a6761d" />
    <circle cx="424.97" cy="513.81" r="12.82" fill="#666666" />
    <circle cx="425.09" cy="163.12" r="10.70" fill="#666666" />
    <circle cx="346.92" cy="271.96" r="12.32" fill="#666666" />
    <circle cx="441.56" cy="147.71" r="10.11" fill="#666666" />
    <circle cx="444.65" cy="530.50" r="11.24" fill="#666666" />
    <circle cx="277.64" cy="552.96" r="12.11" fill="#1b9e77" />
    <circle cx="304.20" cy="552.96" r="12.70" fill="#1b9e77" />
    <circle cx="290.29" cy="577.94" r="14.14" fill="#1b9e77" />
    <circle cx="290.36" cy="531.38" r="11.19" fill="#1b9e77" />
    <circle cx="265.45" cy="530.15" r="12" fill="#1b9e77" />
    <circle cx="316.33" cy="528.07" r="13.25" fill="#1b9e77" />
    <circle cx="318.05" cy="575.47" r="11.98" fill="#1b9e77" />
    <circle cx="261.52" cy="574.56" r="13.09" fill="#1b9e77" />
    <circle cx="333.06" cy="551.96" r="14.17" fill="#1b9e77" />
    <circle cx="249.22" cy="550.44" r="12.24" fill="#1b9e77" />
    <circle cx="298.23" cy="506.50" r="13.16" fill="#1b9e77" />
    <circle cx="269.83" cy="503.06" r="13.70" fill="#1b9e77" />
    <circle cx="308.54" cy="601.03" r="13.54" fill="#1b9e77" />
    <circle cx="271.88" cy="601.39" r="13.93" fill="#1b9e77" />
    <circle cx="206.55" cy="559.60" r="11.44" fill="#d95f02" />
    <circle cx="173.60" cy="504.37" r="30.28" fill="#fff" />
    <circle cx="173.60" cy="504.37" r="30.28"
            fill="none" stroke="#222" stroke-width="1.2"
            stroke-dasharray="76.14 38 76.14"
            transform="rotate(90 173.60 504.37)" />
    <circle cx="216.84" cy="504.37" r="11.21" fill="#e7298a" />
    <circle cx="161.58" cy="613.18" r="0" fill="#fff" />
    <circle cx="199.89" cy="613.18" r="36.56" fill="#fff" />
    <circle cx="199.89" cy="613.18" r="36.56"
            fill="none" stroke="#222" stroke-width="1.2"
            stroke-dasharray="95.72 38.28 95.72"
            transform="rotate(90 199.89 613.18)" />
    <circle cx="233.27" cy="465.65" r="11.22" fill="#fff" />
    <circle cx="258.81" cy="465.65" r="12.57" fill="#fff" />
    <circle cx="258.81" cy="465.65" r="12.57"
            fill="none" stroke="#222" stroke-width="1.2"
            stroke-dasharray="21.73 35.55 21.73"
            transform="rotate(90 258.81 465.65)" />
    <circle cx="245.31" cy="470.44" r="0" fill="#fff" />
    <circle cx="319.05" cy="336.98" r="18.64" fill="#7570b3" />
    <circle cx="352.61" cy="336.98" r="13.16" fill="#1b9e77" />
    <circle cx="526.75" cy="327.81" r="155.25" fill="#fff" />
    <circle cx="526.75" cy="327.81" r="155.25"
            fill="none" stroke="#222" stroke-width="1.2"
            stroke-dasharray="442.73 90 442.73"
            transform="rotate(90 526.75 327.81)" />
    <circle cx="751.41" cy="327.81" r="67.66" fill="#fff" />
    <circle cx="751.41" cy="327.81" r="67.66"
            fill="none" stroke="#222" stroke-width="1.2"
            stroke-dasharray="178.07 69 178.07"
            transform="rotate(90 751.41 327.81)" />
    <circle cx="697.74" cy="420.02" r="37.28" fill="#fff" />
    <circle cx="697.74" cy="420.02" r="37.28"
            fill="none" stroke="#222" stroke-width="1.2"
            stroke-dasharray="95.46 43.30 95.46"
            transform="rotate(90 697.74 420.02)" />
    <circle cx="710.20" cy="195.43" r="69.23" fill="#fff" />
    <circle cx="710.20" cy="195.43" r="69.23"
            fill="none" stroke="#222" stroke-width="1.2"
            stroke-dasharray="189.99 55 189.99"
            transform="rotate(90 710.20 195.43)" />
    <circle cx="649.91" cy="510.74" r="63.54" fill="#fff" />
    <circle cx="649.91" cy="510.74" r="63.54"
            fill="none" stroke="#222" stroke-width="1.2"
            stroke-dasharray="172.11 55 172.11"
            transform="rotate(90 649.91 510.74)" />
    <circle cx="610.64" cy="152.32" r="37.52" fill="#fff" />
    <circle cx="610.64" cy="152.32" r="37.52"
            fill="none" stroke="#222" stroke-width="1.2"
            stroke-dasharray="96.14 43.45 96.14"
            transform="rotate(90 610.64 152.32)" />
    <circle cx="572.55" cy="492.71" r="14.15" fill="#e7298a" />
    <circle cx="746.61" cy="408.30" r="11.23" fill="#66a61e" />
    <circle cx="560.94" cy="162.79" r="11.53" fill="#e7298a" />
    <circle cx="768.37" cy="250.87" r="9.38" fill="#666666" />
    <circle cx="158.02" cy="504.37" r="12.96" fill="#fff" />
    <circle cx="158.02" cy="504.37" r="12.96"
            fill="none" stroke="#222" stroke-width="1.2"
            stroke-dasharray="22.39 36.64 22.39"
            transform="rotate(90 158.02 504.37)" />
    <circle cx="187.43" cy="504.37" r="14.70" fill="#fff" />
    <circle cx="187.43" cy="504.37" r="14.70"
            fill="none" stroke="#222" stroke-width="1.2"
            stroke-dasharray="25.41 41.58 25.41"
            transform="rotate(90 187.43 504.37)" />
    <circle cx="180.26" cy="608.52" r="14.64" fill="#e6ab02" />
    <circle cx="215.33" cy="608.52" r="18.68" fill="#a6761d" />
    <circle cx="194.18" cy="634.31" r="12.93" fill="#666666" />
    <circle cx="233.27" cy="465.65" r="9.47" fill="#1b9e77" />
    <circle cx="258.81" cy="465.65" r="10.83" fill="#fff" />
    <circle cx="505.32" cy="302.18" r="44.95" fill="#fff" />
    <circle cx="505.32" cy="302.18" r="44.95"
            fill="none" stroke="#222" stroke-width="1.2"
            stroke-dasharray="119.97 42.47 119.97"
            transform="rotate(90 505.32 302.18)" />
    <circle cx="595.51" cy="302.18" r="43.50" fill="#fff" />
    <circle cx="595.51" cy="302.18" r="43.50"
            fill="none" stroke="#222" stroke-width="1.2"
            stroke-dasharray="113.05 47.18 113.05"
            transform="rotate(90 595.51 302.18)" />
    <circle cx="551.61" cy="361.46" r="28.52" fill="#fff" />
    <circle cx="551.61" cy="361.46" r="28.52"
            fill="none" stroke="#222" stroke-width="1.2"
            stroke-dasharray="61.61 56 61.61"
            transform="rotate(90 551.61 361.46)" />
    <circle cx="551.88" cy="222.69" r="45.42" fill="#fff" />
    <circle cx="551.88" cy="222.69" r="45.42"
            fill="none" stroke="#222" stroke-width="1.2"
            stroke-dasharray="118.51 48.39 118.51"
            transform="rotate(90 551.88 222.69)" />
    <circle cx="471.70" cy="403.41" r="59.98" fill="#fff" />
    <circle cx="471.70" cy="403.41" r="59.98"
            fill="none" stroke="#222" stroke-width="1.2"
            stroke-dasharray="153.93 69 153.93"
            transform="rotate(90 471.70 403.41)" />
    <circle cx="595.45" cy="360.99" r="13.57" fill="#e7298a" />
    <circle cx="495.78" cy="243.56" r="12.69" fill="#e7298a" />
    <circle cx="607.06" cy="245.55" r="12.55" fill="#e7298a" />
    <circle cx="622.17" cy="353.36" r="12.47" fill="#e7298a" />
    <circle cx="586.08" cy="387.84" r="13.13" fill="#e7298a" />
    <circle cx="470" cy="253.72" r="13.27" fill="#e7298a" />
    <circle cx="631.05" cy="256.96" r="12.27" fill="#e7298a" />
    <circle cx="453.31" cy="331.15" r="12.84" fill="#e7298a" />
    <circle cx="491.83" cy="216.17" r="13.24" fill="#e7298a" />
    <circle cx="612.80" cy="217.92" r="13.93" fill="#e7298a" />
    <circle cx="546.34" cy="404.32" r="12.91" fill="#e7298a" />
    <circle cx="643.77" cy="335.84" r="13.60" fill="#e7298a" />
    <circle cx="451.12" cy="275.42" r="13.75" fill="#e7298a" />
    <circle cx="616.88" cy="381.31" r="14.23" fill="#e7298a" />
    <circle cx="647.15" cy="277.42" r="12.02" fill="#e7298a" />
    <circle cx="726.60" cy="331.18" r="12.46" fill="#666666" />
    <circle cx="754.38" cy="331.18" r="13.57" fill="#e7298a" />
    <circle cx="739.39" cy="355.05" r="12.87" fill="#666666" />
    <circle cx="739.33" cy="305.68" r="14.29" fill="#e7298a" />
    <circle cx="766.20" cy="356.03" r="12.21" fill="#666666" />
    <circle cx="769.04" cy="306.17" r="13.67" fill="#e7298a" />
    <circle cx="713.35" cy="353.19" r="11.49" fill="#666666" />
    <circle cx="710.73" cy="309.32" r="12.80" fill="#e7298a" />
    <circle cx="782.91" cy="334.37" r="13.40" fill="#666666" />
    <circle cx="799.07" cy="309.21" r="14.76" fill="#e7298a" />
    <circle cx="697.97" cy="332.88" r="12.24" fill="#666666" />
    <circle cx="752.59" cy="380.05" r="13.66" fill="#e7298a" />
    <circle cx="673.72" cy="420.11" r="10.97" fill="#e7298a" />
    <circle cx="698.07" cy="420.11" r="11.63" fill="#e7298a" />
    <circle cx="685.24" cy="440.98" r="11.12" fill="#e7298a" />
    <circle cx="685.24" cy="399.38" r="11" fill="#e7298a" />
    <circle cx="709.05" cy="441.83" r="10.96" fill="#e7298a" />
    <circle cx="709" cy="398.27" r="11.04" fill="#e7298a" />
    <circle cx="685.69" cy="196.07" r="13.52" fill="#e7298a" />
    <circle cx="714.54" cy="196.07" r="13.58" fill="#e7298a" />
    <circle cx="700.06" cy="220.74" r="13.28" fill="#e7298a" />
    <circle cx="700.06" cy="171.84" r="12.91" fill="#e7298a" />
    <circle cx="671.57" cy="170.60" r="13.86" fill="#e7298a" />
    <circle cx="728.77" cy="170.32" r="14.10" fill="#e7298a" />
    <circle cx="728.49" cy="221.20" r="13.41" fill="#e7298a" />
    <circle cx="671.27" cy="221.27" r="13.77" fill="#e7298a" />
    <circle cx="742.49" cy="195.27" r="12.64" fill="#e7298a" />
    <circle cx="656.54" cy="195.90" r="13.82" fill="#e7298a" />
    <circle cx="757.79" cy="219.42" r="14.19" fill="#e7298a" />
    <circle cx="687.85" cy="146.38" r="13.58" fill="#e7298a" />
    <circle cx="716.96" cy="142.92" r="13.99" fill="#e7298a" />
    <circle cx="713.76" cy="245.26" r="13.06" fill="#e7298a" />
    <circle cx="641.96" cy="517.86" r="11.03" fill="#666666" />
    <circle cx="665.11" cy="517.86" r="10.37" fill="#666666" />
    <circle cx="654.20" cy="538.01" r="10.79" fill="#666666" />
    <circle cx="654.24" cy="496.28" r="12.05" fill="#666666" />
    <circle cx="630.69" cy="538.77" r="10.98" fill="#666666" />
    <circle cx="628.60" cy="497.17" r="11.85" fill="#666666" />
    <circle cx="677.68" cy="537.20" r="10.95" fill="#666666" />
    <circle cx="679.93" cy="498.82" r="12.02" fill="#666666" />
    <circle cx="619.45" cy="519.27" r="9.78" fill="#666666" />
    <circle cx="602.18" cy="501.59" r="13.19" fill="#666666" />
    <circle cx="697.33" cy="519.84" r="13.52" fill="#666666" />
    <circle cx="597.47" cy="152.74" r="12.24" fill="#666666" />
    <circle cx="623.58" cy="152.74" r="12.12" fill="#666666" />
    <circle cx="610.64" cy="175.65" r="12.44" fill="#666666" />
    <circle cx="610.64" cy="129.38" r="12.83" fill="#666666" />
    <circle cx="158.02" cy="504.37" r="11.21" fill="#1b9e77" />
    <circle cx="187.43" cy="504.37" r="12.96" fill="#fff" />
    <circle cx="187.43" cy="504.37" r="12.96"
            fill="none" stroke="#222" stroke-width="1.2"
            stroke-dasharray="22.39 36.64 22.39"
            transform="rotate(90 187.43 504.37)" />
    <circle cx="258.81" cy="465.65" r="9.08" fill="#e7298a" />
    <circle cx="475.99" cy="303.98" r="13.45" fill="#e7298a" />
    <circle cx="505.26" cy="303.98" r="14.07" fill="#e7298a" />
    <circle cx="490.02" cy="328.32" r="12.90" fill="#e7298a" />
    <circle cx="490" cy="278.81" r="13.61" fill="#e7298a" />
    <circle cx="515.62" cy="328.67" r="10.95" fill="#e7298a" />
    <circle cx="519.82" cy="277.40" r="14.49" fill="#e7298a" />
    <circle cx="567.39" cy="301.75" r="12.75" fill="#e7298a" />
    <circle cx="594.75" cy="301.75" r="12.85" fill="#e7298a" />
    <circle cx="580.97" cy="325.64" r="12.99" fill="#e7298a" />
    <circle cx="580.97" cy="277.60" r="13.20" fill="#e7298a" />
    <circle cx="609.66" cy="326.10" r="13.96" fill="#e7298a" />
    <circle cx="537.68" cy="361.46" r="12.84" fill="#e7298a" />
    <circle cx="565.33" cy="361.46" r="13.06" fill="#e7298a" />
    <circle cx="550.95" cy="222.92" r="14.34" fill="#e7298a" />
    <circle cx="568.90" cy="222.92" r="1.87" fill="#e7298a" />
    <circle cx="576.58" cy="238.91" r="14.13" fill="#e7298a" />
    <circle cx="576.29" cy="207.25" r="13.70" fill="#e7298a" />
    <circle cx="550.67" cy="192.93" r="13.89" fill="#e7298a" />
    <circle cx="550.94" cy="251.84" r="12.84" fill="#e7298a" />
    <circle cx="525.62" cy="207.72" r="13.45" fill="#e7298a" />
    <circle cx="458.44" cy="408.26" r="12.31" fill="#e7298a" />
    <circle cx="484.91" cy="408.26" r="12.42" fill="#e7298a" />
    <circle cx="471.55" cy="432.82" r="13.78" fill="#e7298a" />
    <circle cx="471.56" cy="384" r="13.53" fill="#e7298a" />
    <circle cx="500.85" cy="431.25" r="13.81" fill="#e7298a" />
    <circle cx="501.07" cy="384.90" r="14.25" fill="#e7298a" />
    <circle cx="444.35" cy="386.32" r="12.03" fill="#e7298a" />
    <circle cx="443.27" cy="430.48" r="12.85" fill="#e7298a" />
    <circle cx="427.15" cy="407.48" r="13.49" fill="#e7298a" />
    <circle cx="517.16" cy="408.41" r="12.50" fill="#e7298a" />
    <circle cx="454.42" cy="361.56" r="12.95" fill="#e7298a" />
    <circle cx="187.43" cy="504.37" r="11.21" fill="#e7298a" />
    <text x="347.46" y="636.06" text-anchor="middle" dominant-baseline="middle" font-family="sans-serif" font-size="8" fill="#fff">README.md</text>
    <text x="299.90" y="636.51" text-anchor="middle" dominant-baseline="middle" font-family="sans-serif" font-size="8" fill="#fff">index</text>
    <text x="375.25" y="554.06" text-anchor="middle" dominant-baseline="middle" font-family="sans-serif" font-size="8" fill="#fff">README.md</text>
    <text x="370.33" y="592.96" text-anchor="middle" dominant-baseline="middle" font-family="sans-serif" font-size="8" fill="#fff">circle.html</text>
    <text x="401.16" y="592.96" text-anchor="middle" dominant-baseline="middle" font-family="sans-serif" font-size="8" fill="#fff">circle.json</text>
    <text x="382.17" y="620.97" text-anchor="middle" dominant-baseline="middle" font-family="sans-serif" font-size="8" fill="#fff">circle.svg</text>
    <text x="358.52" y="295.68" text-anchor="middle" dominant-baseline="middle" font-family="sans-serif" font-size="8" fill="#fff">.eslintrc.cjs</text>
    <text x="368.40" y="255.03" text-anchor="middle" dominant-baseline="middle" font-family="sans-serif" font-size="8" fill="#fff">eslint.config.js</text>
    <text x="375.78" y="224.54" text-anchor="middle" dominant-baseline="middle" font-family="sans-serif" font-size="8" fill="#fff">package-lock.json</text>
    <text x="390.43" y="468.68" text-anchor="middle" dominant-baseline="middle" font-family="sans-serif" font-size="8" fill="#fff">package.json</text>
    <text x="406.01" y="492.80" text-anchor="middle" dominant-baseline="middle" font-family="sans-serif" font-size="8" fill="#fff">README.md</text>
    <text x="407.15" y="181.03" text-anchor="middle" dominant-baseline="middle" font-family="sans-serif" font-size="8" fill="#fff">tailwind.config.js</text>
    <text x="424.97" y="513.81" text-anchor="middle" dominant-baseline="middle" font-family="sans-serif" font-size="8" fill="#fff">tsconfig.app.json</text>
    <text x="346.92" y="271.96" text-anchor="middle" dominant-baseline="middle" font-family="sans-serif" font-size="8" fill="#fff">tsconfig.node.json</text>
    <text x="277.64" y="552.96" text-anchor="middle" dominant-baseline="middle" font-family="sans-serif" font-size="8" fill="#fff">applypatch-msg.sample</text>
    <text x="304.20" y="552.96" text-anchor="middle" dominant-baseline="middle" font-family="sans-serif" font-size="8" fill="#fff">commit-msg.sample</text>
    <text x="290.29" y="577.94" text-anchor="middle" dominant-baseline="middle" font-family="sans-serif" font-size="8" fill="#fff">fsmonitor-watchman.sample</text>
    <text x="316.33" y="528.07" text-anchor="middle" dominant-baseline="middle" font-family="sans-serif" font-size="8" fill="#fff">pre-commit.sample</text>
    <text x="261.52" y="574.56" text-anchor="middle" dominant-baseline="middle" font-family="sans-serif" font-size="8" fill="#fff">pre-push.sample</text>
    <text x="333.06" y="551.96" text-anchor="middle" dominant-baseline="middle" font-family="sans-serif" font-size="8" fill="#fff">pre-rebase.sample</text>
    <text x="249.22" y="550.44" text-anchor="middle" dominant-baseline="middle" font-family="sans-serif" font-size="8" fill="#fff">pre-receive.sample</text>
    <text x="298.23" y="506.50" text-anchor="middle" dominant-baseline="middle" font-family="sans-serif" font-size="8" fill="#fff">prepare-commit-msg.sample</text>
    <text x="269.83" y="503.06" text-anchor="middle" dominant-baseline="middle" font-family="sans-serif" font-size="8" fill="#fff">push-to-checkout.sample</text>
    <text x="308.54" y="601.03" text-anchor="middle" dominant-baseline="middle" font-family="sans-serif" font-size="8" fill="#fff">sendemail-validate.sample</text>
    <text x="271.88" y="601.39" text-anchor="middle" dominant-baseline="middle" font-family="sans-serif" font-size="8" fill="#fff">update.sample</text>
    <text x="319.05" y="336.98" text-anchor="middle" dominant-baseline="middle" font-family="sans-serif" font-size="8" fill="#fff">frodo-keep-your-secrets.gif</text>
    <text x="352.61" y="336.98" text-anchor="middle" dominant-baseline="middle" font-family="sans-serif" font-size="8" fill="#fff">vite.svg</text>
    <text x="572.55" y="492.71" text-anchor="middle" dominant-baseline="middle" font-family="sans-serif" font-size="8" fill="#fff">App.tsx</text>
    <text x="180.26" y="608.52" text-anchor="middle" dominant-baseline="middle" font-family="sans-serif" font-size="8" fill="#fff">pack-c1dde55483e3b9d832d2e4015e4455537cc70a20.idx</text>
    <text x="215.33" y="608.52" text-anchor="middle" dominant-baseline="middle" font-family="sans-serif" font-size="8" fill="#fff">pack-c1dde55483e3b9d832d2e4015e4455537cc70a20.pack</text>
    <text x="194.18" y="634.31" text-anchor="middle" dominant-baseline="middle" font-family="sans-serif" font-size="8" fill="#fff">pack-c1dde55483e3b9d832d2e4015e4455537cc70a20.rev</text>
    <text x="595.45" y="360.99" text-anchor="middle" dominant-baseline="middle" font-family="sans-serif" font-size="8" fill="#fff">ActionsMenu.tsx</text>
    <text x="495.78" y="243.56" text-anchor="middle" dominant-baseline="middle" font-family="sans-serif" font-size="8" fill="#fff">DashboardCard.tsx</text>
    <text x="607.06" y="245.55" text-anchor="middle" dominant-baseline="middle" font-family="sans-serif" font-size="8" fill="#fff">ErrorBlockerMessage.tsx</text>
    <text x="622.17" y="353.36" text-anchor="middle" dominant-baseline="middle" font-family="sans-serif" font-size="8" fill="#fff">FameGradiant.tsx</text>
    <text x="586.08" y="387.84" text-anchor="middle" dominant-baseline="middle" font-family="sans-serif" font-size="8" fill="#fff">GlobalCallHandler.tsx</text>
    <text x="470" y="253.72" text-anchor="middle" dominant-baseline="middle" font-family="sans-serif" font-size="8" fill="#fff">IntraLogin.tsx</text>
    <text x="631.05" y="256.96" text-anchor="middle" dominant-baseline="middle" font-family="sans-serif" font-size="8" fill="#fff">LoadingScreen.tsx</text>
    <text x="453.31" y="331.15" text-anchor="middle" dominant-baseline="middle" font-family="sans-serif" font-size="8" fill="#fff">LocationEditorModal.tsx</text>
    <text x="491.83" y="216.17" text-anchor="middle" dominant-baseline="middle" font-family="sans-serif" font-size="8" fill="#fff">MessageInput.tsx</text>
    <text x="612.80" y="217.92" text-anchor="middle" dominant-baseline="middle" font-family="sans-serif" font-size="8" fill="#fff">NotificationDropdown.tsx</text>
    <text x="546.34" y="404.32" text-anchor="middle" dominant-baseline="middle" font-family="sans-serif" font-size="8" fill="#fff">ProtectedRoute.tsx</text>
    <text x="643.77" y="335.84" text-anchor="middle" dominant-baseline="middle" font-family="sans-serif" font-size="8" fill="#fff">ReportUserModal.tsx</text>
    <text x="451.12" y="275.42" text-anchor="middle" dominant-baseline="middle" font-family="sans-serif" font-size="8" fill="#fff">ScheduledDatesModal.tsx</text>
    <text x="616.88" y="381.31" text-anchor="middle" dominant-baseline="middle" font-family="sans-serif" font-size="8" fill="#fff">SetScheduledDatesModal.tsx</text>
    <text x="647.15" y="277.42" text-anchor="middle" dominant-baseline="middle" font-family="sans-serif" font-size="8" fill="#fff">ThemeToggle.tsx</text>
    <text x="726.60" y="331.18" text-anchor="middle" dominant-baseline="middle" font-family="sans-serif" font-size="8" fill="#fff">AuthContext.ts</text>
    <text x="754.38" y="331.18" text-anchor="middle" dominant-baseline="middle" font-family="sans-serif" font-size="8" fill="#fff">AuthProvider.tsx</text>
    <text x="739.39" y="355.05" text-anchor="middle" dominant-baseline="middle" font-family="sans-serif" font-size="8" fill="#fff">MessagesContext.ts</text>
    <text x="739.33" y="305.68" text-anchor="middle" dominant-baseline="middle" font-family="sans-serif" font-size="8" fill="#fff">MessagesProvider.tsx</text>
    <text x="766.20" y="356.03" text-anchor="middle" dominant-baseline="middle" font-family="sans-serif" font-size="8" fill="#fff">NotificationContext.ts</text>
    <text x="769.04" y="306.17" text-anchor="middle" dominant-baseline="middle" font-family="sans-serif" font-size="8" fill="#fff">NotificationProvider.tsx</text>
    <text x="710.73" y="309.32" text-anchor="middle" dominant-baseline="middle" font-family="sans-serif" font-size="8" fill="#fff">ThemeProvider.tsx</text>
    <text x="782.91" y="334.37" text-anchor="middle" dominant-baseline="middle" font-family="sans-serif" font-size="8" fill="#fff">UserMeContext.ts</text>
    <text x="799.07" y="309.21" text-anchor="middle" dominant-baseline="middle" font-family="sans-serif" font-size="8" fill="#fff">UserMeProvider.tsx</text>
    <text x="697.97" y="332.88" text-anchor="middle" dominant-baseline="middle" font-family="sans-serif" font-size="8" fill="#fff">WebSocketContext.ts</text>
    <text x="752.59" y="380.05" text-anchor="middle" dominant-baseline="middle" font-family="sans-serif" font-size="8" fill="#fff">WebSocketProvider.tsx</text>
    <text x="685.69" y="196.07" text-anchor="middle" dominant-baseline="middle" font-family="sans-serif" font-size="8" fill="#fff">ConfirmAccountPage.tsx</text>
    <text x="714.54" y="196.07" text-anchor="middle" dominant-baseline="middle" font-family="sans-serif" font-size="8" fill="#fff">ConversationsPage.tsx</text>
    <text x="700.06" y="220.74" text-anchor="middle" dominant-baseline="middle" font-family="sans-serif" font-size="8" fill="#fff">DashboardPage.tsx</text>
    <text x="700.06" y="171.84" text-anchor="middle" dominant-baseline="middle" font-family="sans-serif" font-size="8" fill="#fff">EditProfilePage.tsx</text>
    <text x="671.57" y="170.60" text-anchor="middle" dominant-baseline="middle" font-family="sans-serif" font-size="8" fill="#fff">IntraCallbackPage.tsx</text>
    <text x="728.77" y="170.32" text-anchor="middle" dominant-baseline="middle" font-family="sans-serif" font-size="8" fill="#fff">LoginPage.tsx</text>
    <text x="728.49" y="221.20" text-anchor="middle" dominant-baseline="middle" font-family="sans-serif" font-size="8" fill="#fff">MatchingPage.tsx</text>
    <text x="671.27" y="221.27" text-anchor="middle" dominant-baseline="middle" font-family="sans-serif" font-size="8" fill="#fff">NewPasswordPage.tsx</text>
    <text x="742.49" y="195.27" text-anchor="middle" dominant-baseline="middle" font-family="sans-serif" font-size="8" fill="#fff">NotFoundPage.tsx</text>
    <text x="656.54" y="195.90" text-anchor="middle" dominant-baseline="middle" font-family="sans-serif" font-size="8" fill="#fff">ProfilePage.tsx</text>
    <text x="757.79" y="219.42" text-anchor="middle" dominant-baseline="middle" font-family="sans-serif" font-size="8" fill="#fff">PublicProfilePage.tsx</text>
    <text x="687.85" y="146.38" text-anchor="middle" dominant-baseline="middle" font-family="sans-serif" font-size="8" fill="#fff">RecoverPasswordPage.tsx</text>
    <text x="716.96" y="142.92" text-anchor="middle" dominant-baseline="middle" font-family="sans-serif" font-size="8" fill="#fff">RegisterPage.tsx</text>
    <text x="713.76" y="245.26" text-anchor="middle" dominant-baseline="middle" font-family="sans-serif" font-size="8" fill="#fff">SetupProfilePage.tsx</text>
    <text x="654.24" y="496.28" text-anchor="middle" dominant-baseline="middle" font-family="sans-serif" font-size="8" fill="#fff">match.ts</text>
    <text x="679.93" y="498.82" text-anchor="middle" dominant-baseline="middle" font-family="sans-serif" font-size="8" fill="#fff">scheduledDate.ts</text>
    <text x="602.18" y="501.59" text-anchor="middle" dominant-baseline="middle" font-family="sans-serif" font-size="8" fill="#fff">user.ts</text>
    <text x="697.33" y="519.84" text-anchor="middle" dominant-baseline="middle" font-family="sans-serif" font-size="8" fill="#fff">websocket.ts</text>
    <text x="597.47" y="152.74" text-anchor="middle" dominant-baseline="middle" font-family="sans-serif" font-size="8" fill="#fff">filterStorage.ts</text>
    <text x="623.58" y="152.74" text-anchor="middle" dominant-baseline="middle" font-family="sans-serif" font-size="8" fill="#fff">setupLeaflet.ts</text>
    <text x="610.64" y="175.65" text-anchor="middle" dominant-baseline="middle" font-family="sans-serif" font-size="8" fill="#fff">showApiErrorToast.ts</text>
    <text x="610.64" y="129.38" text-anchor="middle" dominant-baseline="middle" font-family="sans-serif" font-size="8" fill="#fff">toPublicUser.ts</text>
    <text x="475.99" y="303.98" text-anchor="middle" dominant-baseline="middle" font-family="sans-serif" font-size="8" fill="#fff">CallIncomingModal.tsx</text>
    <text x="505.26" y="303.98" text-anchor="middle" dominant-baseline="middle" font-family="sans-serif" font-size="8" fill="#fff">ChatWindow.tsx</text>
    <text x="490.02" y="328.32" text-anchor="middle" dominant-baseline="middle" font-family="sans-serif" font-size="8" fill="#fff">ConversationItem.tsx</text>
    <text x="490" y="278.81" text-anchor="middle" dominant-baseline="middle" font-family="sans-serif" font-size="8" fill="#fff">ConversationPanel.tsx</text>
    <text x="519.82" y="277.40" text-anchor="middle" dominant-baseline="middle" font-family="sans-serif" font-size="8" fill="#fff">VoiceChat.tsx</text>
    <text x="567.39" y="301.75" text-anchor="middle" dominant-baseline="middle" font-family="sans-serif" font-size="8" fill="#fff">FormInput.tsx</text>
    <text x="594.75" y="301.75" text-anchor="middle" dominant-baseline="middle" font-family="sans-serif" font-size="8" fill="#fff">FormSelect.tsx</text>
    <text x="580.97" y="325.64" text-anchor="middle" dominant-baseline="middle" font-family="sans-serif" font-size="8" fill="#fff">FormYear.tsx</text>
    <text x="580.97" y="277.60" text-anchor="middle" dominant-baseline="middle" font-family="sans-serif" font-size="8" fill="#fff">LocationForm.tsx</text>
    <text x="609.66" y="326.10" text-anchor="middle" dominant-baseline="middle" font-family="sans-serif" font-size="8" fill="#fff">ProfileForm.tsx</text>
    <text x="537.68" y="361.46" text-anchor="middle" dominant-baseline="middle" font-family="sans-serif" font-size="8" fill="#fff">DistanceMap.tsx</text>
    <text x="565.33" y="361.46" text-anchor="middle" dominant-baseline="middle" font-family="sans-serif" font-size="8" fill="#fff">LocationEditor.tsx</text>
    <text x="550.95" y="222.92" text-anchor="middle" dominant-baseline="middle" font-family="sans-serif" font-size="8" fill="#fff">FilterPanel.tsx</text>
    <text x="576.58" y="238.91" text-anchor="middle" dominant-baseline="middle" font-family="sans-serif" font-size="8" fill="#fff">MatchCard.tsx</text>
    <text x="576.29" y="207.25" text-anchor="middle" dominant-baseline="middle" font-family="sans-serif" font-size="8" fill="#fff">MatchMap.tsx</text>
    <text x="550.67" y="192.93" text-anchor="middle" dominant-baseline="middle" font-family="sans-serif" font-size="8" fill="#fff">MatchResults.tsx</text>
    <text x="550.94" y="251.84" text-anchor="middle" dominant-baseline="middle" font-family="sans-serif" font-size="8" fill="#fff">NoMatches.tsx</text>
    <text x="525.62" y="207.72" text-anchor="middle" dominant-baseline="middle" font-family="sans-serif" font-size="8" fill="#fff">SortSelector.tsx</text>
    <text x="458.44" y="408.26" text-anchor="middle" dominant-baseline="middle" font-family="sans-serif" font-size="8" fill="#fff">LocationCard.tsx</text>
    <text x="484.91" y="408.26" text-anchor="middle" dominant-baseline="middle" font-family="sans-serif" font-size="8" fill="#fff">PictureGallery.tsx</text>
    <text x="471.55" y="432.82" text-anchor="middle" dominant-baseline="middle" font-family="sans-serif" font-size="8" fill="#fff">PictureManager.tsx</text>
    <text x="471.56" y="384" text-anchor="middle" dominant-baseline="middle" font-family="sans-serif" font-size="8" fill="#fff">ProfileHeader.tsx</text>
    <text x="500.85" y="431.25" text-anchor="middle" dominant-baseline="middle" font-family="sans-serif" font-size="8" fill="#fff">ProfileStats.tsx</text>
    <text x="501.07" y="384.90" text-anchor="middle" dominant-baseline="middle" font-family="sans-serif" font-size="8" fill="#fff">PublicProfileActions.tsx</text>
    <text x="444.35" y="386.32" text-anchor="middle" dominant-baseline="middle" font-family="sans-serif" font-size="8" fill="#fff">StatItem.tsx</text>
    <text x="443.27" y="430.48" text-anchor="middle" dominant-baseline="middle" font-family="sans-serif" font-size="8" fill="#fff">StatSidebar.tsx</text>
    <text x="427.15" y="407.48" text-anchor="middle" dominant-baseline="middle" font-family="sans-serif" font-size="8" fill="#fff">TagEditor.tsx</text>
    <text x="517.16" y="408.41" text-anchor="middle" dominant-baseline="middle" font-family="sans-serif" font-size="8" fill="#fff">TagList.tsx</text>
    <text x="454.42" y="361.56" text-anchor="middle" dominant-baseline="middle" font-family="sans-serif" font-size="8" fill="#fff">UserListStat.tsx</text>
    <defs><path id="rim-web-matcha-577-337" d="M 556.55 61.62 A 280.11 280.11 0 0 1 597.51 61.62"/></defs>
    <text font-family="sans-serif" font-size="14" fill="#000">
      <textPath href="#rim-web-matcha-577-337" startOffset="50%" text-anchor="middle">web</textPath>
    </text>
    <defs><path id="rim-src-web-matcha-612-337" d="M 591.85 98.78 A 243.06 243.06 0 0 1 632.81 98.78"/></defs>
    <text font-family="sans-serif" font-size="14" fill="#000">
      <textPath href="#rim-src-web-matcha-612-337" startOffset="50%" text-anchor="middle">src</textPath>
    </text>
    <defs><path id="rim-components-src-web-matcha-527-328" d="M 482.38 183.04 A 155.25 155.25 0 0 1 571.12 183.04"/></defs>
    <text font-family="sans-serif" font-size="14" fill="#000">
      <textPath href="#rim-components-src-web-matcha-527-328" startOffset="50%" text-anchor="middle">components</textPath>
    </text>
    <defs><path id="rim--git-matcha-240-554" d="M 215.88 441.20 A 119.27 119.27 0 0 1 263.55 441.20"/></defs>
    <text font-family="sans-serif" font-size="14" fill="#000">
      <textPath href="#rim--git-matcha-240-554" startOffset="50%" text-anchor="middle">.git</textPath>
    </text>
    <defs><path id="rim-pages-src-web-matcha-710-195" d="M 683.42 135.60 A 69.23 69.23 0 0 1 736.98 135.60"/></defs>
    <text font-family="sans-serif" font-size="14" fill="#000">
      <textPath href="#rim-pages-src-web-matcha-710-195" startOffset="50%" text-anchor="middle">pages</textPath>
    </text>
    <defs><path id="rim-hooks--git-matcha-289-552" d="M 262.40 493.42 A 68.03 68.03 0 0 1 315.91 493.42"/></defs>
    <text font-family="sans-serif" font-size="14" fill="#000">
      <textPath href="#rim-hooks--git-matcha-289-552" startOffset="50%" text-anchor="middle">hooks</textPath>
    </text>
    <defs><path id="rim-context-src-web-matcha-751-328" d="M 718.38 272.75 A 67.66 67.66 0 0 1 784.43 272.75"/></defs>
    <text font-family="sans-serif" font-size="14" fill="#000">
      <textPath href="#rim-context-src-web-matcha-751-328" startOffset="50%" text-anchor="middle">context</textPath>
    </text>
    <defs><path id="rim-types-src-web-matcha-650-511" d="M 623.27 457.06 A 63.54 63.54 0 0 1 676.56 457.06"/></defs>
    <text font-family="sans-serif" font-size="14" fill="#000">
      <textPath href="#rim-types-src-web-matcha-650-511" startOffset="50%" text-anchor="middle">types</textPath>
    </text>
    <defs><path id="rim-profile-components-src-web-matcha-472-403" d="M 439.08 357.09 A 59.98 59.98 0 0 1 504.33 357.09"/></defs>
    <text font-family="sans-serif" font-size="14" fill="#000">
      <textPath href="#rim-profile-components-src-web-matcha-472-403" startOffset="50%" text-anchor="middle">profile</textPath>
    </text>
    <defs><path id="rim-match-components-src-web-matcha-552-223" d="M 528.82 187.56 A 45.42 45.42 0 0 1 574.95 187.56"/></defs>
    <text font-family="sans-serif" font-size="11.356128626909307" fill="#000">
      <textPath href="#rim-match-components-src-web-matcha-552-223" startOffset="50%" text-anchor="middle">match</textPath>
    </text>
    <defs><path id="rim-chat-components-src-web-matcha-505-302" d="M 484.87 266.15 A 44.95 44.95 0 0 1 525.78 266.15"/></defs>
    <text font-family="sans-serif" font-size="11.236522347020442" fill="#000">
      <textPath href="#rim-chat-components-src-web-matcha-505-302" startOffset="50%" text-anchor="middle">chat</textPath>
    </text>
    <defs><path id="rim-logs--git-matcha-186-504" d="M 165.45 469.17 A 44.11 44.11 0 0 1 205.93 469.17"/></defs>
    <text font-family="sans-serif" font-size="11.028679008204774" fill="#000">
      <textPath href="#rim-logs--git-matcha-186-504" startOffset="50%" text-anchor="middle">logs</textPath>
    </text>
    <defs><path id="rim-forms-components-src-web-matcha-596-302" d="M 573.06 268.92 A 43.50 43.50 0 0 1 617.96 268.92"/></defs>
    <text font-family="sans-serif" font-size="10.873996048235036" fill="#000">
      <textPath href="#rim-forms-components-src-web-matcha-596-302" startOffset="50%" text-anchor="middle">forms</textPath>
    </text>
    <defs><path id="rim-objects--git-matcha-199-613" d="M 173.99 587.04 A 39.18 39.18 0 0 1 224.04 587.04"/></defs>
    <text font-family="sans-serif" font-size="9.794938751400409" fill="#000">
      <textPath href="#rim-objects--git-matcha-199-613" startOffset="50%" text-anchor="middle">objects</textPath>
    </text>
    <defs><path id="rim-utils-src-web-matcha-611-152" d="M 590.11 124.92 A 37.52 37.52 0 0 1 631.17 124.92"/></defs>
    <text font-family="sans-serif" font-size="9.379261380415672" fill="#000">
      <textPath href="#rim-utils-src-web-matcha-611-152" startOffset="50%" text-anchor="middle">utils</textPath>
    </text>
    <defs><path id="rim-hooks-src-web-matcha-698-420" d="M 677.29 392.85 A 37.28 37.28 0 0 1 718.20 392.85"/></defs>
    <text font-family="sans-serif" font-size="9.319250548647968" fill="#000">
      <textPath href="#rim-hooks-src-web-matcha-698-420" startOffset="50%" text-anchor="middle">hooks</textPath>
    </text>
    <defs><path id="rim-pack-objects--git-matcha-200-613" d="M 181.61 585.52 A 36.56 36.56 0 0 1 218.17 585.52"/></defs>
    <text font-family="sans-serif" font-size="9.139944360713198" fill="#000">
      <textPath href="#rim-pack-objects--git-matcha-200-613" startOffset="50%" text-anchor="middle">pack</textPath>
    </text>
    <defs><path id="rim-output-matcha-388-604" d="M 366.06 580.28 A 35.37 35.37 0 0 1 409.67 580.28"/></defs>
    <text font-family="sans-serif" font-size="9" fill="#000">
      <textPath href="#rim-output-matcha-388-604" startOffset="50%" text-anchor="middle">output</textPath>
    </text>
    <defs><path id="rim-public-web-matcha-333-337" d="M 311.37 314.27 A 34.43 34.43 0 0 1 354.81 314.27"/></defs>
    <text font-family="sans-serif" font-size="9" fill="#000">
      <textPath href="#rim-public-web-matcha-333-337" startOffset="50%" text-anchor="middle">public</textPath>
    </text>
    <defs><path id="rim-refs-logs--git-matcha-174-504" d="M 155.82 483.85 A 30.28 30.28 0 0 1 191.38 483.85"/></defs>
    <text font-family="sans-serif" font-size="9" fill="#000">
      <textPath href="#rim-refs-logs--git-matcha-174-504" startOffset="50%" text-anchor="middle">refs</textPath>
    </text>
    <defs><path id="rim-location-components-src-web-matcha-552-361" d="M 527.90 349.61 A 28.52 28.52 0 0 1 575.33 349.61"/></defs>
    <text font-family="sans-serif" font-size="9" fill="#000">
      <textPath href="#rim-location-components-src-web-matcha-552-361" startOffset="50%" text-anchor="middle">location</textPath>
    </text>
    <defs><path id="rim-refs--git-matcha-247-466" d="M 229.31 449.78 A 26.41 26.41 0 0 1 264.12 449.78"/></defs>
    <text font-family="sans-serif" font-size="9" fill="#000">
      <textPath href="#rim-refs--git-matcha-247-466" startOffset="50%" text-anchor="middle">refs</textPath>
    </text>
    <defs><path id="rim-remotes-refs-logs--git-matcha-187-504" d="M 172.91 506.07 A 14.70 14.70 0 0 1 201.96 506.07"/></defs>
    <text font-family="sans-serif" font-size="9" fill="#000">
      <textPath href="#rim-remotes-refs-logs--git-matcha-187-504" startOffset="50%" text-anchor="middle">remotes</textPath>
    </text>
    <defs><path id="rim-docs-matcha-375-554" d="M 361.23 554.30 A 14.52 14.52 0 0 1 389.27 554.30"/></defs>
    <text font-family="sans-serif" font-size="9" fill="#000">
      <textPath href="#rim-docs-matcha-375-554" startOffset="50%" text-anchor="middle">docs</textPath>
    </text>
    <defs><path id="rim-info--git-matcha-207-560" d="M 193.53 561.54 A 13.18 13.18 0 0 1 219.57 561.54"/></defs>
    <text font-family="sans-serif" font-size="9" fill="#000">
      <textPath href="#rim-info--git-matcha-207-560" startOffset="50%" text-anchor="middle">info</textPath>
    </text>
    <defs><path id="rim-heads-refs-logs--git-matcha-158-504" d="M 145.22 506.34 A 12.96 12.96 0 0 1 170.82 506.34"/></defs>
    <text font-family="sans-serif" font-size="9" fill="#000">
      <textPath href="#rim-heads-refs-logs--git-matcha-158-504" startOffset="50%" text-anchor="middle">heads</textPath>
    </text>
    <defs><path id="rim-origin-remotes-refs-logs--git-matcha-187-504" d="M 174.63 506.34 A 12.96 12.96 0 0 1 200.23 506.34"/></defs>
    <text font-family="sans-serif" font-size="9" fill="#000">
      <textPath href="#rim-origin-remotes-refs-logs--git-matcha-187-504" startOffset="50%" text-anchor="middle">origin</textPath>
    </text>
    <defs><path id="rim-remotes-refs--git-matcha-259-466" d="M 246.39 467.68 A 12.57 12.57 0 0 1 271.23 467.68"/></defs>
    <text font-family="sans-serif" font-size="9" fill="#000">
      <textPath href="#rim-remotes-refs--git-matcha-259-466" startOffset="50%" text-anchor="middle">remotes</textPath>
    </text>
  </g>

  <g class="legend">
    <g transform="translate(900, 624)">
      <circle cx="6" cy="0" r="6" fill="#7570b3" />
      <text x="20" y="0" font-family="sans-serif" font-size="12"
            dominant-baseline="middle" fill="#000">.cjs</text>
    </g>
    <g transform="translate(900, 642)">
      <circle cx="6" cy="0" r="6" fill="#66a61e" />
      <text x="20" y="0" font-family="sans-serif" font-size="12"
            dominant-baseline="middle" fill="#000">.css</text>
    </g>
    <g transform="translate(900, 660)">
      <circle cx="6" cy="0" r="6" fill="#d95f02" />
      <text x="20" y="0" font-family="sans-serif" font-size="12"
            dominant-baseline="middle" fill="#000">.example</text>
    </g>
    <g transform="translate(900, 678)">
      <circle cx="6" cy="0" r="6" fill="#7570b3" />
      <text x="20" y="0" font-family="sans-serif" font-size="12"
            dominant-baseline="middle" fill="#000">.gif</text>
    </g>
    <g transform="translate(900, 696)">
      <circle cx="6" cy="0" r="6" fill="#a6761d" />
      <text x="20" y="0" font-family="sans-serif" font-size="12"
            dominant-baseline="middle" fill="#000">.html</text>
    </g>
    <g transform="translate(900, 714)">
      <circle cx="6" cy="0" r="6" fill="#e6ab02" />
      <text x="20" y="0" font-family="sans-serif" font-size="12"
            dominant-baseline="middle" fill="#000">.idx</text>
    </g>
    <g transform="translate(900, 732)">
      <circle cx="6" cy="0" r="6" fill="#a6761d" />
      <text x="20" y="0" font-family="sans-serif" font-size="12"
            dominant-baseline="middle" fill="#000">.js</text>
    </g>
    <g transform="translate(900, 750)">
      <circle cx="6" cy="0" r="6" fill="#666666" />
      <text x="20" y="0" font-family="sans-serif" font-size="12"
            dominant-baseline="middle" fill="#000">.json</text>
    </g>
    <g transform="translate(900, 768)">
      <circle cx="6" cy="0" r="6" fill="#1b9e77" />
      <text x="20" y="0" font-family="sans-serif" font-size="12"
            dominant-baseline="middle" fill="#000">.md</text>
    </g>
    <g transform="translate(900, 786)">
      <circle cx="6" cy="0" r="6" fill="#a6761d" />
      <text x="20" y="0" font-family="sans-serif" font-size="12"
            dominant-baseline="middle" fill="#000">.pack</text>
    </g>
    <g transform="translate(900, 804)">
      <circle cx="6" cy="0" r="6" fill="#666666" />
      <text x="20" y="0" font-family="sans-serif" font-size="12"
            dominant-baseline="middle" fill="#000">.rev</text>
    </g>
    <g transform="translate(900, 822)">
      <circle cx="6" cy="0" r="6" fill="#1b9e77" />
      <text x="20" y="0" font-family="sans-serif" font-size="12"
            dominant-baseline="middle" fill="#000">.sample</text>
    </g>
    <g transform="translate(900, 840)">
      <circle cx="6" cy="0" r="6" fill="#1b9e77" />
      <text x="20" y="0" font-family="sans-serif" font-size="12"
            dominant-baseline="middle" fill="#000">.svg</text>
    </g>
    <g transform="translate(900, 858)">
      <circle cx="6" cy="0" r="6" fill="#666666" />
      <text x="20" y="0" font-family="sans-serif" font-size="12"
            dominant-baseline="middle" fill="#000">.ts</text>
    </g>
    <g transform="translate(900, 876)">
      <circle cx="6" cy="0" r="6" fill="#e7298a" />
      <text x="20" y="0" font-family="sans-serif" font-size="12"
            dominant-baseline="middle" fill="#000">.tsx</text>
    </g>
  </g>
</svg>
